PathFileType	4	(X/Y/Z)	./resultDataOpenSim/trcMotMarkerGrf/sub06/qtm-12-04.trc
DataRate	CameraRate	NumFrames	NumMarkers	Units	OrigDataRate	OrigDataStartFrame	OrigNumFrames
250.000000	250.000000	14	24	m	250.000000	135	537
Frame#	Time	L.Toe.Tip			R.Toe.Tip			L.Ankle.Lat			R.Ankle.Lat			L.Ankle.Med			R.Ankle.Med			L.Heel			R.Heel			L.Knee.Lat			R.Knee.Lat			L.Knee.Med			R.Knee.Med			L.Thigh.Upper			R.Thigh.Upper			L.ASIS			R.ASIS			V.Sacral			L.Acromium			R.Acromium			C7			L.Elbow			R.Elbow			L.Wrist.Lat			R.Wrist.Lat
		X1	Y1	Z1	X2	Y2	Z2	X3	Y3	Z3	X4	Y4	Z4	X5	Y5	Z5	X6	Y6	Z6	X7	Y7	Z7	X8	Y8	Z8	X9	Y9	Z9	X10	Y10	Z10	X11	Y11	Z11	X12	Y12	Z12	X13	Y13	Z13	X14	Y14	Z14	X15	Y15	Z15	X16	Y16	Z16	X17	Y17	Z17	X18	Y18	Z18	X19	Y19	Z19	X20	Y20	Z20	X21	Y21	Z21	X22	Y22	Z22	X23	Y23	Z23	X24	Y24	Z24

135	0.536	-0.08471307	0.1428847	-0.10376265	-0.77249142	0.034243817	0.030821314	-0.20901597	0.1101454	-0.12525553	-0.89930429	0.076902764	0.056714834	-0.21528677	0.12562358	-0.041126255	-0.87854447	0.093407442	-0.030316447	-0.25293758	0.045203254	-0.075802059	-0.96030704	0.06452149	-0.0049687197	-0.35931933	0.44405701	-0.12900129	-0.71149439	0.41794638	0.096328439	-0.38514542	0.43237816	-0.0033381903	-0.74054147	0.42446396	-0.034377992	-0.54851925	0.78144482	-0.18161473	-0.62400854	0.76964033	0.16158441	-0.49056237	0.82492971	-0.12599025	-0.51310489	0.8190226	0.12327853	-0.6867094	0.89879423	-0.012227009	-0.58628118	1.3051088	-0.19485059	-0.55403805	1.2981312	0.16785753	-0.650178	1.3381715	-0.0082423481	-0.69820565	1.0073408	-0.23047465	-0.55086328	0.98370543	0.26899975	-0.60335443	0.79213138	-0.30098398	-0.32924009	0.87910072	0.2392049
136	0.54	-0.075583056	0.14332565	-0.10275823	-0.77236539	0.034241314	0.030851075	-0.19968789	0.11002636	-0.12433097	-0.89854905	0.078045867	0.056785765	-0.20621999	0.12564372	-0.040255804	-0.87762829	0.094339159	-0.030253789	-0.24340166	0.04491573	-0.074746592	-0.95972872	0.066357594	-0.0047859346	-0.35112367	0.44360645	-0.12837734	-0.70710037	0.41706074	0.096223562	-0.37792164	0.43150451	-0.002925854	-0.73538788	0.42358526	-0.034582751	-0.54104136	0.7800141	-0.18151173	-0.61817292	0.76834023	0.1614076	-0.48347559	0.82330964	-0.1258193	-0.50713572	0.81747542	0.12343275	-0.68063281	0.89717018	-0.013283588	-0.57971541	1.3034992	-0.19513765	-0.54795716	1.2966329	0.16759339	-0.6437776	1.3367747	-0.0086612848	-0.69156472	1.0058156	-0.23044264	-0.5436664	0.98211163	0.26855234	-0.59844141	0.79002994	-0.3012884	-0.32169792	0.87845713	0.23856566
137	0.544	-0.067019436	0.14325695	-0.10167237	-0.77222543	0.034239364	0.030899541	-0.19094399	0.10959501	-0.12341298	-0.89779919	0.07923973	0.056910929	-0.19774243	0.12529398	-0.039385058	-0.87664283	0.095369007	-0.030120039	-0.23460707	0.044386617	-0.073809862	-0.95911325	0.068324375	-0.0044224325	-0.34294429	0.44310477	-0.12778396	-0.70262333	0.4161774	0.09614681	-0.37050646	0.4307007	-0.0025242	-0.73016553	0.42269575	-0.034753063	-0.5335341	0.77866031	-0.18143828	-0.61225008	0.76703436	0.1612249	-0.47633845	0.82176588	-0.12561559	-0.50116065	0.81594946	0.12358783	-0.67421069	0.89542468	-0.014908211	-0.57312902	1.3019179	-0.19545198	-0.54185165	1.2951758	0.16730578	-0.63766398	1.3355393	-0.0091173883	-0.68477329	1.0043158	-0.23045397	-0.53657959	0.9805653	0.26806646	-0.59342283	0.78795942	-0.30155122	-0.31423942	0.87778227	0.23792157
138	0.548	-0.059019973	0.14268561	-0.10048428	-0.7720788	0.034241652	0.030946902	-0.18278121	0.10886486	-0.12251003	-0.8970284	0.080499186	0.057087425	-0.18984973	0.1245676	-0.038510499	-0.87560403	0.09648114	-0.029924907	-0.22655925	0.043603533	-0.073021623	-0.95845176	0.070409879	-0.0039861524	-0.33490594	0.44253281	-0.12725662	-0.69803003	0.41531461	0.096102189	-0.3629086	0.42998096	-0.0021329327	-0.72487002	0.42179662	-0.034879567	-0.52608635	0.77738736	-0.18140877	-0.60624193	0.76572246	0.16103281	-0.46910102	0.82029979	-0.12539252	-0.49514454	0.81444999	0.12374952	-0.66730797	0.89365093	-0.016631305	-0.5665071	1.3003704	-0.19579277	-0.53572685	1.2937615	0.16699587	-0.63164846	1.3343596	-0.0096170212	-0.67785327	1.0028556	-0.23050159	-0.52958898	0.97906621	0.26754124	-0.58829625	0.78593085	-0.30176373	-0.30683444	0.87707985	0.23727047
139	0.552	-0.05158078	0.14161753	-0.099191872	-0.77193904	0.034249111	0.030969228	-0.17519602	0.10785216	-0.12162697	-0.89619965	0.0818377	0.05731683	-0.18253891	0.12347423	-0.037635079	-0.87453324	0.097655693	-0.029685748	-0.21924843	0.042563605	-0.072386064	-0.9577461	0.072593923	-0.0035465535	-0.32695192	0.44192948	-0.12677842	-0.69332415	0.41447484	0.096081542	-0.35515097	0.42936058	-0.0017627135	-0.71948673	0.42089261	-0.034959046	-0.51870615	0.77621393	-0.18142632	-0.60015054	0.76440427	0.16082851	-0.46175808	0.81892226	-0.12515601	-0.48901143	0.81299186	0.12394177	-0.66000199	0.89195574	-0.017944945	-0.55983938	1.2988652	-0.19615946	-0.52958149	1.2923944	0.16667013	-0.62554261	1.3331455	-0.010147134	-0.67083703	1.0014433	-0.23057982	-0.52267296	0.97761624	0.26697445	-0.58310658	0.78394725	-0.30194252	-0.29948123	0.87634989	0.236618
140	0.556	-0.04469723	0.14005286	-0.09781636	-0.7718112	0.034255749	0.030962411	-0.1681846	0.1065635	-0.12076389	-0.89528638	0.083265717	0.057597801	-0.17579922	0.1220372	-0.036763931	-0.87342188	0.098891984	-0.029406583	-0.21265421	0.041278445	-0.071889935	-0.95699416	0.074861752	-0.003088519	-0.31895554	0.44135337	-0.12631087	-0.68851509	0.4136515	0.096079969	-0.34726602	0.42884846	-0.0014255014	-0.71399637	0.41998708	-0.03499912	-0.51134333	0.77514954	-0.18149525	-0.59396506	0.76307998	0.16061861	-0.4543713	0.81764163	-0.12490515	-0.4826619	0.81159685	0.12420146	-0.6524635	0.89033799	-0.018759892	-0.55311566	1.2974047	-0.19655103	-0.52340868	1.2910783	0.16633197	-0.61926311	1.3318797	-0.01068972	-0.6637408	1.0000777	-0.23067979	-0.51579633	0.97621696	0.26635909	-0.57789638	0.78200341	-0.30211186	-0.29219524	0.87559028	0.23596318
141	0.56	-0.038357908	0.13798826	-0.096393828	-0.77168443	0.034252582	0.0309494	-0.16173563	0.10499625	-0.11991484	-0.89427773	0.084785995	0.057925813	-0.16960318	0.12028899	-0.035901949	-0.87224249	0.10020877	-0.029078639	-0.20675261	0.039771934	-0.07150321	-0.95615771	0.077226458	-0.0026233786	-0.31085774	0.44084364	-0.12583921	-0.68358907	0.41284523	0.0961063	-0.33928635	0.42844696	-0.0011335063	-0.70838935	0.41908142	-0.035009085	-0.50395488	0.77418654	-0.18161005	-0.58763988	0.76175091	0.16043217	-0.44699123	0.81645436	-0.1246409	-0.47603276	0.81028331	0.12454978	-0.64487059	0.88878296	-0.019267796	-0.54633076	1.295986	-0.19696864	-0.51720582	1.2898144	0.16597452	-0.61283	1.3305983	-0.011239475	-0.65656699	0.99875157	-0.23077668	-0.50892846	0.97487099	0.26568304	-0.57266658	0.78008787	-0.30229234	-0.28499597	0.87480161	0.23530177
142	0.564	-0.032541508	0.1354326	-0.094954407	-0.77154331	0.034235755	0.03095486	-0.15582666	0.10315141	-0.11907053	-0.89317028	0.08639507	0.058297331	-0.1639175	0.11826506	-0.035054629	-0.87097616	0.10162531	-0.028694834	-0.2015161	0.038067445	-0.071173401	-0.9551653	0.0797385	-0.0022588127	-0.30267114	0.44041804	-0.12537267	-0.67851899	0.41206721	0.096171933	-0.33123641	0.42815494	-0.00090078159	-0.70267444	0.41817989	-0.034993515	-0.49653019	0.77331201	-0.1817422	-0.581088	0.76041971	0.16032051	-0.43959481	0.81535586	-0.12436852	-0.469163	0.80905092	0.12495962	-0.6373886	0.88735683	-0.019599423	-0.53948511	1.2946059	-0.19741509	-0.51097351	1.2886037	0.1655864	-0.60630478	1.3293406	-0.01180238	-0.64931139	0.99745341	-0.23083778	-0.50207041	0.97358085	0.26494258	-0.56735488	0.77819858	-0.30248568	-0.27789583	0.87398747	0.23463654
143	0.568	-0.027222339	0.1324188	-0.093513777	-0.77138291	0.034209088	0.03098289	-0.15043499	0.10103801	-0.11822661	-0.8919707	0.088088518	0.058707415	-0.15872457	0.11599608	-0.034232891	-0.86961408	0.1031505	-0.02825647	-0.19691231	0.036183734	-0.070840366	-0.95397791	0.082450268	-0.0020524295	-0.29443142	0.44008432	-0.12492285	-0.67329837	0.41132705	0.096275548	-0.32313876	0.42796739	-0.00073850227	-0.69687104	0.41729187	-0.034958622	-0.48905789	0.77251841	-0.18185552	-0.57424728	0.75909317	0.16031242	-0.43212716	0.81434873	-0.12409482	-0.46218652	0.80787831	0.12536494	-0.63005825	0.88609502	-0.019820842	-0.5325787	1.293263	-0.19789095	-0.50470898	1.28745	0.16516481	-0.59973473	1.3281232	-0.012385282	-0.64197742	0.99617819	-0.23085475	-0.49525558	0.97234938	0.26415329	-0.56185448	0.77635691	-0.30265415	-0.27089566	0.8731517	0.23397377
144	0.572	-0.022380541	0.12899326	-0.092091496	-0.77120862	0.03417887	0.031025309	-0.14554756	0.098668499	-0.11739011	-0.89068777	0.089867483	0.059149388	-0.15401787	0.11351121	-0.033447699	-0.86814798	0.1047849	-0.027771887	-0.19290991	0.034145084	-0.070472608	-0.95265589	0.085365525	-0.0018157897	-0.28617139	0.43984272	-0.12449707	-0.66795392	0.41062285	0.096405761	-0.31502388	0.42787203	-0.00064844281	-0.69099082	0.41642796	-0.034910237	-0.4815025	0.77180548	-0.18193178	-0.56723157	0.75779774	0.16033637	-0.42456267	0.81343514	-0.12382324	-0.45522781	0.80674248	0.12571111	-0.62279524	0.88494624	-0.020008683	-0.52560898	1.291958	-0.19839336	-0.49841023	1.2863614	0.16471766	-0.59313336	1.326943	-0.012992361	-0.63458341	0.99494	-0.23086795	-0.48851767	0.97118176	0.26333413	-0.5560859	0.7745952	-0.30274546	-0.26398717	0.87229656	0.2333121
145	0.576	-0.018006455	0.12519886	-0.090728451	-0.77102222	0.034150303	0.031078282	-0.14115558	0.096059032	-0.11657326	-0.88931155	0.091741232	0.059620561	-0.14977594	0.11084972	-0.032696758	-0.86656696	0.10652186	-0.02725268	-0.1894863	0.03198592	-0.0700839	-0.95132208	0.088437542	-0.0012050885	-0.27791385	0.43967848	-0.12410487	-0.6625149	0.40994639	0.096555343	-0.30692172	0.42784719	-0.00062067008	-0.68502377	0.41558897	-0.034839934	-0.47382758	0.77117216	-0.18197631	-0.56035995	0.75658933	0.16023138	-0.41690806	0.81260875	-0.12355275	-0.44832323	0.80563201	0.12598557	-0.61553728	0.88386039	-0.020199167	-0.51857314	1.2906893	-0.19891859	-0.49207858	1.2853423	0.16425072	-0.58649311	1.3257915	-0.013626237	-0.62714654	0.99376269	-0.23093879	-0.48185934	0.97008157	0.26248268	-0.55010647	0.77292166	-0.30276711	-0.25716118	0.8714207	0.23264316
146	0.58	-0.014091959	0.12107539	-0.089471652	-0.77080673	0.034134197	0.031146204	-0.13724286	0.093232994	-0.11578058	-0.88781436	0.093715137	0.0601251	-0.14596304	0.10805714	-0.031967915	-0.86485572	0.10834636	-0.026706371	-0.18662602	0.029742441	-0.069711833	-0.95000769	0.091626172	-0.00012812827	-0.269668	0.43955979	-0.12375565	-0.65697861	0.40929018	0.0967288	-0.29884545	0.42786359	-0.00063713809	-0.67893449	0.41475812	-0.034727079	-0.46601757	0.77060524	-0.18200122	-0.55387184	0.75551319	0.15992335	-0.40917796	0.81185345	-0.12328211	-0.44145286	0.80453913	0.1262029	-0.60828424	0.88282585	-0.020384531	-0.51147422	1.2894524	-0.19946432	-0.48570829	1.2843843	0.16375816	-0.5798113	1.3246618	-0.01428549	-0.61966978	0.99265642	-0.23109438	-0.47525682	0.96904346	0.26158043	-0.54411196	0.77130651	-0.3027993	-0.25041931	0.87052115	0.23196545
147	0.584	-0.010618146	0.11666778	-0.088337524	-0.77053006	0.034151614	0.031237137	-0.13378351	0.090222168	-0.1150087	-0.88617418	0.095776438	0.060670293	-0.14256792	0.10516983	-0.031252599	-0.86300031	0.11024204	-0.026129368	-0.1843007	0.027438773	-0.069372566	-0.9485623	0.094951599	0.0010384375	-0.26144261	0.43945133	-0.12344773	-0.65131733	0.40864723	0.096937718	-0.29079289	0.42788926	-0.00068063553	-0.67267459	0.4139119	-0.034556474	-0.45808085	0.77008201	-0.1820079	-0.54766382	0.75454503	0.15955863	-0.40138611	0.81114969	-0.12301151	-0.43458575	0.80345903	0.12637957	-0.60102716	0.88183395	-0.020573502	-0.50432758	1.2882489	-0.2000309	-0.47928931	1.2834705	0.16323187	-0.57309731	1.3235521	-0.014967166	-0.612155	0.99161107	-0.23131618	-0.46869455	0.96805406	0.26062487	-0.53823686	0.76971665	-0.3029048	-0.24377411	0.86959925	0.23128996
148	0.588	-0.0075560648	0.11202341	-0.087296063	-0.77017576	0.034212857	0.031352915	-0.1307504	0.087065816	-0.11426017	-0.88439027	0.097906225	0.061257202	-0.13962654	0.1022102	-0.030545264	-0.86099877	0.11220591	-0.025505867	-0.18244613	0.025079069	-0.069029514	-0.9468076	0.098461362	0.0018621481	-0.25327416	0.43932944	-0.12316729	-0.64551042	0.40801309	0.09718992	-0.28275952	0.42789527	-0.0007396923	-0.66622484	0.41304366	-0.03432957	-0.45005157	0.76959026	-0.1819901	-0.54145839	0.75358829	0.15934293	-0.39354581	0.81048922	-0.12274096	-0.42768335	0.80239948	0.12652382	-0.59371561	0.88085709	-0.020809441	-0.49715654	1.2870926	-0.20062418	-0.47283057	1.2825925	0.1626738	-0.56635764	1.3224616	-0.015674631	-0.60461505	0.99060856	-0.23157343	-0.46218611	0.96710384	0.25964337	-0.53240912	0.76815582	-0.30306739	-0.23723354	0.86865925	0.23062792
